<svg width="512" height="512" viewBox="0 0 512 512" fill="none" xmlns="http://www.w3.org/2000/svg">
<rect width="512" height="512" fill="#151730"/>
<path d="M416.974 110.11L313.349 243.167C308.406 249.515 312 258.841 319.924 260.228L393.429 273.099C403.174 274.806 405.547 287.709 397.046 292.771L151.347 439.067C142.643 444.249 132.294 435.519 135.937 426.066L188.317 290.141C190.733 283.872 186.821 276.958 180.204 275.799L98.6513 261.519C91.6856 260.299 87.8134 252.762 90.8782 246.389L180.21 60.6319C182.28 56.3278 186.958 53.9242 191.662 54.7479L410.398 93.0491C418.322 94.4366 421.917 103.763 416.974 110.11Z" fill="#CE7CFF"/>
<path fill-rule="evenodd" clip-rule="evenodd" d="M425.389 116.664L321.764 249.722L395.269 262.592C414.76 266.005 419.505 291.813 402.503 301.936L156.804 448.232C139.396 458.597 118.698 441.136 125.983 422.231L178.364 286.306L96.8115 272.026C82.8801 269.586 75.1357 254.512 81.2653 241.766L170.597 56.009C174.736 47.4009 184.093 42.5936 193.502 44.2411L412.238 82.5423C428.086 85.3174 435.275 103.97 425.389 116.664ZM313.349 243.167L416.974 110.11C421.917 103.763 418.322 94.4366 410.398 93.0491L191.662 54.7479C186.958 53.9242 182.28 56.3278 180.21 60.6318L90.8781 246.389C87.8133 252.762 91.6855 260.299 98.6512 261.519L180.204 275.799C186.821 276.958 190.733 283.872 188.317 290.141L135.937 426.066C132.294 435.519 142.643 444.249 151.347 439.067L397.046 292.771C405.547 287.709 403.174 274.806 393.429 273.099L319.924 260.228C312 258.841 308.405 249.515 313.349 243.167Z" fill="#170460"/>
<path d="M180.209 60.633C182.279 56.329 186.958 53.9254 191.662 54.7491L278.783 70.0042L211 214L115.027 196.173L180.209 60.633Z" fill="#D999FF"/>
<path fill-rule="evenodd" clip-rule="evenodd" d="M199.998 288.055C202.729 289.158 204.049 292.267 202.945 294.998L148.945 428.664C147.842 431.396 144.734 432.715 142.003 431.612C139.271 430.508 137.952 427.4 139.055 424.669L193.055 291.002C194.159 288.271 197.267 286.952 199.998 288.055Z" fill="#E7BEFF"/>
<path d="M397.046 292.771L151.347 439.067L346.734 275.012L341.334 264.167L393.429 273.099C403.174 274.806 405.547 287.71 397.046 292.771Z" fill="#A143DA"/>
<path d="M416.974 110.11L313.349 243.167C308.426 249.489 311.972 258.765 319.829 260.211L266.667 250.667L368.001 85.625L410.398 93.0489C418.322 94.4365 421.917 103.763 416.974 110.11Z" fill="#A143DA"/>
<path fill-rule="evenodd" clip-rule="evenodd" d="M158.245 447.204C157.794 447.586 157.312 447.931 156.804 448.233C139.396 458.598 118.698 441.137 125.983 422.232L178.364 286.307L96.8114 272.027C82.88 269.587 75.1356 254.513 81.2652 241.767L170.597 56.0102C174.736 47.4021 184.093 42.5948 193.502 44.2423L354.375 72.4115C369.212 75.0096 376.757 91.7507 368.875 104.587L283.915 242.961L334.374 252.135C352.1 255.358 358.096 277.744 344.355 289.396L158.245 447.204ZM332.466 262.63C341.329 264.242 344.327 275.434 337.456 281.26L151.347 439.068C142.643 444.251 132.294 435.52 135.936 426.067L188.317 290.142C190.733 283.873 186.821 276.959 180.204 275.8L98.6511 261.52C91.6855 260.3 87.8133 252.763 90.8781 246.39L180.21 60.633C182.279 56.329 186.958 53.9254 191.662 54.7491L352.535 82.9183C359.954 84.2174 363.726 92.5879 359.785 99.0063L266.667 250.667L332.466 262.63Z" fill="#170460"/>
<path d="M266.667 250.668L359.785 99.0075C363.726 92.5891 359.953 84.2185 352.535 82.9195L333.333 79.5573L248 245.333L266.667 250.668Z" fill="#C25DFF"/>
<path fill-rule="evenodd" clip-rule="evenodd" d="M188.994 64.5343C191.644 65.8194 192.751 69.0097 191.466 71.6601L106.133 247.66C104.848 250.311 101.657 251.417 99.0068 250.132C96.3564 248.847 95.2495 245.657 96.5346 243.007L181.868 67.0065C183.153 64.3561 186.343 63.2493 188.994 64.5343Z" fill="#E7BEFF"/>
<path fill-rule="evenodd" clip-rule="evenodd" d="M127.66 191.034C130.311 192.319 131.418 195.51 130.133 198.16L106.133 247.66C104.848 250.311 101.657 251.417 99.0068 250.132C96.3564 248.847 95.2495 245.657 96.5346 243.007L120.535 193.507C121.82 190.856 125.01 189.749 127.66 191.034Z" fill="#FCE8FF"/>
<path d="M354.313 172.895C353.235 175.286 350.728 176.489 348.714 175.581C346.7 174.672 345.942 171.998 347.02 169.606C348.099 167.215 350.606 166.012 352.62 166.92C354.633 167.829 355.392 170.503 354.313 172.895Z" fill="#7F2CB0"/>
<path d="M339.381 200.869C338.303 203.26 335.796 204.463 333.782 203.555C331.768 202.646 331.01 199.971 332.088 197.58C333.167 195.189 335.674 193.986 337.687 194.894C339.701 195.803 340.459 198.477 339.381 200.869Z" fill="#7F2CB0"/>
<path d="M342.404 184.366C340.932 187.629 337.511 189.27 334.763 188.031C332.015 186.791 330.98 183.141 332.452 179.878C333.924 176.614 337.345 174.973 340.093 176.213C342.841 177.452 343.876 181.102 342.404 184.366Z" fill="#7F2CB0"/>
<path d="M374.48 151.728C373.402 154.12 370.895 155.322 368.881 154.414C366.867 153.506 366.109 150.831 367.187 148.439C368.266 146.048 370.773 144.846 372.787 145.754C374.8 146.662 375.559 149.337 374.48 151.728Z" fill="#7F2CB0"/>
<path d="M360.653 155.314C359.881 157.025 358.087 157.886 356.646 157.236C355.205 156.586 354.663 154.672 355.434 152.96C356.206 151.249 358 150.389 359.441 151.039C360.882 151.689 361.424 153.603 360.653 155.314Z" fill="#7F2CB0"/>
<path d="M365.871 168.152C365.1 169.864 363.306 170.724 361.865 170.074C360.424 169.424 359.881 167.51 360.653 165.799C361.425 164.088 363.218 163.227 364.66 163.877C366.101 164.527 366.643 166.441 365.871 168.152Z" fill="#7F2CB0"/>
<path d="M349.567 190.152C348.795 191.864 347.001 192.724 345.56 192.074C344.119 191.424 343.577 189.51 344.348 187.799C345.12 186.088 346.914 185.227 348.355 185.877C349.796 186.527 350.339 188.441 349.567 190.152Z" fill="#7F2CB0"/>
<path d="M323.9 208.296C323.128 210.007 321.334 210.867 319.893 210.217C318.452 209.568 317.91 207.653 318.681 205.942C319.453 204.231 321.247 203.371 322.688 204.02C324.129 204.67 324.672 206.584 323.9 208.296Z" fill="#7F2CB0"/>
<path d="M349.567 157.665C348.795 159.377 347.001 160.237 345.56 159.587C344.119 158.937 343.577 157.023 344.348 155.312C345.12 153.601 346.914 152.74 348.355 153.39C349.796 154.04 350.339 155.954 349.567 157.665Z" fill="#7F2CB0"/>
<path d="M365.871 130.999C365.1 132.71 363.306 133.57 361.865 132.921C360.424 132.271 359.881 130.357 360.653 128.645C361.425 126.934 363.218 126.074 364.66 126.724C366.101 127.373 366.643 129.287 365.871 130.999Z" fill="#7F2CB0"/>
<path d="M386.538 134.332C385.766 136.043 383.972 136.904 382.531 136.254C381.09 135.604 380.548 133.69 381.319 131.979C382.091 130.267 383.885 129.407 385.326 130.057C386.767 130.707 387.31 132.621 386.538 134.332Z" fill="#7F2CB0"/>
<path fill-rule="evenodd" clip-rule="evenodd" d="M330.986 270.289C332.943 272.49 332.745 275.861 330.544 277.819L228.211 368.819C226.01 370.776 222.639 370.578 220.681 368.377C218.724 366.176 218.922 362.805 221.123 360.848L323.456 269.848C325.657 267.89 329.028 268.088 330.986 270.289Z" fill="#BA5FF0"/>
<path fill-rule="evenodd" clip-rule="evenodd" d="M319.732 80.903C322.363 82.2275 323.422 85.4341 322.097 88.065L249.431 232.398C248.106 235.029 244.9 236.088 242.269 234.764C239.638 233.439 238.579 230.233 239.903 227.602L312.57 83.2683C313.895 80.6374 317.101 79.5784 319.732 80.903Z" fill="#BA5FF0"/>
<path d="M291.415 275.072C290.633 277.912 287.984 279.659 285.499 278.974C283.014 278.289 281.635 275.432 282.418 272.592C283.2 269.752 285.849 268.006 288.334 268.691C290.818 269.376 292.198 272.233 291.415 275.072Z" fill="#DA9BFF"/>
<path d="M274.891 295.09C274.358 297.021 272.557 298.209 270.867 297.744C269.177 297.278 268.238 295.334 268.771 293.403C269.303 291.472 271.105 290.284 272.795 290.75C274.485 291.216 275.423 293.159 274.891 295.09Z" fill="#DA9BFF"/>
<path d="M253.741 305.012C253.208 306.943 251.407 308.131 249.717 307.666C248.027 307.2 247.089 305.256 247.621 303.325C248.153 301.394 249.955 300.206 251.645 300.672C253.335 301.137 254.273 303.081 253.741 305.012Z" fill="#DA9BFF"/>
<path d="M274.891 274.845C274.358 276.777 272.557 277.965 270.867 277.499C269.177 277.033 268.238 275.09 268.771 273.158C269.303 271.227 271.105 270.039 272.795 270.505C274.485 270.971 275.423 272.914 274.891 274.845Z" fill="#DA9BFF"/>
<path d="M310.224 270.947C309.691 272.878 307.89 274.066 306.2 273.6C304.51 273.135 303.571 271.191 304.104 269.26C304.636 267.329 306.438 266.141 308.128 266.607C309.818 267.072 310.756 269.016 310.224 270.947Z" fill="#DA9BFF"/>
<path d="M294.976 285.472C294.603 286.825 293.341 287.657 292.158 287.331C290.974 287.004 290.317 285.643 290.69 284.29C291.062 282.938 292.324 282.106 293.508 282.432C294.692 282.758 295.349 284.119 294.976 285.472Z" fill="#DA9BFF"/>
<path d="M263.476 312.139C263.103 313.492 261.841 314.324 260.658 313.997C259.474 313.671 258.817 312.31 259.19 310.957C259.562 309.604 260.824 308.772 262.008 309.099C263.192 309.425 263.849 310.786 263.476 312.139Z" fill="#DA9BFF"/>
<path d="M268.481 262.678C268.108 264.031 266.847 264.863 265.663 264.536C264.479 264.21 263.822 262.849 264.195 261.496C264.568 260.143 265.83 259.311 267.013 259.638C268.197 259.964 268.854 261.325 268.481 262.678Z" fill="#DA9BFF"/>
<path d="M299.263 266.355C298.89 267.708 297.628 268.54 296.444 268.213C295.26 267.887 294.603 266.526 294.976 265.173C295.349 263.821 296.611 262.988 297.795 263.315C298.978 263.641 299.635 265.002 299.263 266.355Z" fill="#DA9BFF"/>
<path d="M285.962 289.696C285.589 291.049 284.327 291.881 283.143 291.555C281.96 291.228 281.302 289.867 281.675 288.514C282.048 287.162 283.31 286.33 284.494 286.656C285.677 286.982 286.335 288.343 285.962 289.696Z" fill="#DA9BFF"/>
<path d="M263.476 278.074C263.103 279.426 261.841 280.259 260.658 279.932C259.474 279.606 258.817 278.245 259.19 276.892C259.562 275.539 260.824 274.707 262.008 275.034C263.192 275.36 263.849 276.721 263.476 278.074Z" fill="#DA9BFF"/>
<path d="M267.131 286.654C266.758 288.007 265.496 288.839 264.313 288.513C263.129 288.187 262.472 286.826 262.845 285.473C263.218 284.12 264.48 283.288 265.663 283.614C266.847 283.941 267.504 285.302 267.131 286.654Z" fill="#DA9BFF"/>
<path d="M245.342 325.988C244.969 327.34 243.707 328.173 242.524 327.846C241.34 327.52 240.683 326.159 241.056 324.806C241.429 323.453 242.69 322.621 243.874 322.948C245.058 323.274 245.715 324.635 245.342 325.988Z" fill="#DA9BFF"/>
</svg>
