<svg width="512" height="512" viewBox="0 0 512 512" fill="none" xmlns="http://www.w3.org/2000/svg">
<g filter="url(#filter0_i_302_14)">
<rect width="512" height="512" rx="90" fill="#15172E"/>
</g>
<rect x="149.506" y="135.662" width="210.857" height="232.156" rx="59" fill="url(#paint0_linear_302_14)"/>
<g filter="url(#filter1_i_302_14)">
<path fill-rule="evenodd" clip-rule="evenodd" d="M256 420C346.575 420 420 346.575 420 256C420 165.425 346.575 92 256 92C165.425 92 92 165.425 92 256C92 346.575 165.425 420 256 420ZM307.162 168.398C309.653 159.552 301.068 154.321 293.228 159.907L183.784 237.875C175.281 243.932 176.618 256 185.793 256H214.612V255.777H270.781L225.014 271.925L204.838 343.602C202.348 352.448 210.931 357.679 218.772 352.093L328.217 274.126C336.719 268.069 335.381 256 326.208 256H282.503L307.162 168.398Z" fill="url(#paint1_linear_302_14)"/>
</g>
<defs>
<filter id="filter0_i_302_14" x="0" y="0" width="517" height="514.5" filterUnits="userSpaceOnUse" color-interpolation-filters="sRGB">
<feFlood flood-opacity="0" result="BackgroundImageFix"/>
<feBlend mode="normal" in="SourceGraphic" in2="BackgroundImageFix" result="shape"/>
<feColorMatrix in="SourceAlpha" type="matrix" values="0 0 0 0 0 0 0 0 0 0 0 0 0 0 0 0 0 0 127 0" result="hardAlpha"/>
<feOffset dx="5" dy="2.5"/>
<feGaussianBlur stdDeviation="12.5"/>
<feComposite in2="hardAlpha" operator="arithmetic" k2="-1" k3="1"/>
<feColorMatrix type="matrix" values="0 0 0 0 0.671563 0 0 0 0 0.546875 0 0 0 0 0.875 0 0 0 0.1 0"/>
<feBlend mode="normal" in2="shape" result="effect1_innerShadow_302_14"/>
</filter>
<filter id="filter1_i_302_14" x="92" y="92" width="328" height="332" filterUnits="userSpaceOnUse" color-interpolation-filters="sRGB">
<feFlood flood-opacity="0" result="BackgroundImageFix"/>
<feBlend mode="normal" in="SourceGraphic" in2="BackgroundImageFix" result="shape"/>
<feColorMatrix in="SourceAlpha" type="matrix" values="0 0 0 0 0 0 0 0 0 0 0 0 0 0 0 0 0 0 127 0" result="hardAlpha"/>
<feOffset dy="4"/>
<feGaussianBlur stdDeviation="20"/>
<feComposite in2="hardAlpha" operator="arithmetic" k2="-1" k3="1"/>
<feColorMatrix type="matrix" values="0 0 0 0 0 0 0 0 0 0 0 0 0 0 0 0 0 0 0.25 0"/>
<feBlend mode="normal" in2="shape" result="effect1_innerShadow_302_14"/>
</filter>
<linearGradient id="paint0_linear_302_14" x1="303" y1="156.5" x2="205.5" y2="358" gradientUnits="userSpaceOnUse">
<stop stop-color="white"/>
<stop offset="1" stop-color="#AB8BDF"/>
</linearGradient>
<linearGradient id="paint1_linear_302_14" x1="145.5" y1="136.5" x2="376" y2="366" gradientUnits="userSpaceOnUse">
<stop stop-color="#A890CF"/>
<stop offset="0.39333" stop-color="#8E71BD"/>
<stop offset="1" stop-color="#6541A2"/>
</linearGradient>
</defs>
</svg>
